<mxfile host="app.diagrams.net" modified="2023-12-21T08:25:18.936Z" agent="Mozilla/5.0 (Macintosh; Intel Mac OS X 10_15_7) AppleWebKit/537.36 (KHTML, like Gecko) Chrome/119.0.0.0 Safari/537.36" version="22.1.11" etag="fhCJz0tJAmbxF2xu-4ye" type="github">
  <diagram name="第 1 页" id="Fnspw0c0oHjm014IiLXk">
    <mxGraphModel>
      <root>
        <mxCell id="0" />
        <mxCell id="1" parent="0" />
      </root>
    </mxGraphModel>
  </diagram>
</mxfile>
